<svg width="254" height="36" viewBox="0 0 254 36" fill="none" xmlns="http://www.w3.org/2000/svg">
<path d="M0.668123 16.44V15.84C0.668123 12.5867 1.72146 9.86667 3.82812 7.68C5.96146 5.49333 8.62812 4.4 11.8281 4.4C15.0015 4.4 17.6548 5.50667 19.7881 7.72C21.9481 9.90667 23.0281 12.6133 23.0281 15.84V16.44C23.0281 19.6933 21.9748 22.4133 19.8681 24.6C17.7881 26.7867 15.1481 27.88 11.9481 27.88C8.74812 27.88 6.06812 26.7733 3.90812 24.56C1.74812 22.3467 0.668123 19.64 0.668123 16.44ZM21.2281 16.44V15.84C21.2281 13.0667 20.3348 10.76 18.5481 8.92C16.7615 7.08 14.5081 6.16 11.7881 6.16C9.12146 6.16 6.89479 7.09333 5.10812 8.96C3.34812 10.8267 2.46812 13.12 2.46812 15.84V16.44C2.46812 19.1333 3.34812 21.4267 5.10812 23.32C6.89479 25.1867 9.12146 26.12 11.7881 26.12C14.5081 26.12 16.7615 25.2 18.5481 23.36C20.3348 21.4933 21.2281 19.1867 21.2281 16.44ZM28.9666 25.16H39.4466V27H27.0066V5.12H28.9666V25.16ZM45.3337 27H43.3737V5.12H45.3337V27ZM66.6172 33.8C66.9372 33.8 67.2039 33.68 67.4172 33.44C67.6305 33.2267 67.7505 32.9733 67.7772 32.68V24.36C65.9639 26.7867 63.4839 28 60.3372 28C57.2172 28 54.6172 26.88 52.5372 24.64C50.4839 22.4 49.4572 19.6933 49.4572 16.52C49.4572 13.1867 50.5372 10.36 52.6972 8.04C54.8572 5.69333 57.5639 4.52 60.8172 4.52C62.7372 4.52 64.4172 4.92 65.8572 5.72C67.2972 6.52 68.0172 7.68 68.0172 9.2C68.0172 10.0533 67.7505 10.7733 67.2172 11.36C66.6839 11.92 66.0172 12.2 65.2172 12.2C64.5772 12.2 63.9905 12 63.4572 11.6L64.5772 10.24C64.7639 10.3733 64.9772 10.44 65.2172 10.44C65.5372 10.44 65.7905 10.3333 65.9772 10.12C66.1905 9.88 66.2972 9.58667 66.2972 9.24C66.2972 8.25333 65.7372 7.52 64.6172 7.04C63.4972 6.53333 62.2572 6.28 60.8972 6.28C58.0972 6.28 55.7772 7.28 53.9372 9.28C52.0972 11.2533 51.1772 13.6667 51.1772 16.52C51.1772 19.24 52.0572 21.5467 53.8172 23.44C55.5772 25.3333 57.7772 26.28 60.4172 26.28C62.4972 26.28 64.2439 25.5733 65.6572 24.16C67.0705 22.7467 67.7772 21.3067 67.7772 19.84V17.32H69.5772V32.68C69.5772 33.9867 68.9639 34.9067 67.7372 35.44C67.3905 35.6 67.0172 35.68 66.6172 35.68C65.5772 35.68 64.7639 35.24 64.1772 34.36L65.6972 33.32C65.9372 33.64 66.2439 33.8 66.6172 33.8ZM73.505 24.36C73.665 24.9467 74.0117 25.24 74.545 25.24C75.025 25.24 75.345 25.0267 75.505 24.6L83.945 5.04H84.545L94.065 27H92.025L88.985 19.72H79.545L77.185 25.4C76.6783 26.5467 75.7983 27.12 74.545 27.12C73.825 27.12 73.185 26.88 72.625 26.4C72.0917 25.92 71.7717 25.36 71.665 24.72L73.505 24.36ZM83.905 9.32L80.305 17.92H88.225L84.585 9.32C84.345 8.76 84.225 8.41333 84.225 8.28L83.905 9.32ZM99.7897 6.92C99.363 6.92 98.9897 7.08 98.6697 7.4C98.3764 7.69333 98.2297 8.05333 98.2297 8.48H96.4297C96.4297 7.04 97.1097 6 98.4697 5.36C98.8697 5.2 99.2964 5.12 99.7497 5.12H107.27C109.083 5.12 110.536 5.74667 111.63 7C112.75 8.22667 113.31 9.78667 113.31 11.68C113.31 13.4133 112.843 14.8267 111.91 15.92C111.003 17.0133 109.763 17.6133 108.19 17.72L107.39 17.76L107.79 17.88C108.323 18.04 108.736 18.3333 109.03 18.76C109.67 19.56 110.563 20.7333 111.71 22.28C112.883 23.8 113.59 24.72 113.83 25.04C114.043 25.3333 114.336 25.48 114.71 25.48C115.03 25.48 115.283 25.3867 115.47 25.2C115.683 24.9867 115.79 24.72 115.79 24.4L117.63 24.48C117.63 25.28 117.35 25.96 116.79 26.52C116.23 27.0533 115.55 27.32 114.75 27.32C113.79 27.32 112.99 26.9067 112.35 26.08L108.31 20.84C107.696 19.9867 107.083 19.3467 106.47 18.92C105.883 18.4933 105.07 18.24 104.03 18.16V16.36H106.79C108.176 16.36 109.283 15.9467 110.11 15.12C110.963 14.2933 111.39 13.1733 111.39 11.76C111.39 10.3467 111.003 9.18667 110.23 8.28C109.483 7.37333 108.456 6.92 107.15 6.92H102.35V27H100.39V6.92H99.7897ZM123.347 32.32L127.107 27C124.627 26.44 122.654 25.2 121.187 23.28C119.747 21.36 119.027 18.9467 119.027 16.04C119.027 12.7067 120.001 10 121.947 7.92C123.921 5.84 126.547 4.8 129.827 4.8C133.107 4.8 135.721 5.84 137.667 7.92C139.641 10 140.627 12.7067 140.627 16.04C140.627 19.3467 139.641 22.0533 137.667 24.16C135.694 26.2667 133.081 27.32 129.827 27.32L128.947 27.28L127.067 30L129.627 30.88C130.747 31.3067 131.947 31.52 133.227 31.52C134.134 31.52 135.147 31.1467 136.267 30.4L137.067 31.8C136.161 32.44 135.547 32.8267 135.227 32.96C134.854 33.0933 134.361 33.16 133.747 33.16C132.014 33.16 130.507 32.9333 129.227 32.48L126.067 31.4L124.707 33.36L123.347 32.32ZM129.867 6.56C127.094 6.56 124.921 7.44 123.347 9.2C121.774 10.9333 120.987 13.24 120.987 16.12C120.987 18.92 121.787 21.2 123.387 22.96C124.987 24.6933 127.134 25.56 129.827 25.56C132.574 25.56 134.734 24.6933 136.307 22.96C137.907 21.2 138.707 18.9067 138.707 16.08C138.707 13.28 137.907 11 136.307 9.24C134.734 7.45333 132.587 6.56 129.867 6.56ZM143.148 6.2C143.762 5.29333 144.642 4.84 145.788 4.84C146.695 4.84 147.428 5.13333 147.988 5.72C148.575 6.30667 148.868 7.05333 148.868 7.96V18.44C148.868 20.6 149.442 22.32 150.588 23.6C151.762 24.88 153.375 25.52 155.428 25.52C157.508 25.52 159.135 24.88 160.308 23.6C161.508 22.32 162.108 20.6 162.108 18.44V5.08H164.068V18.44C164.068 21.1067 163.295 23.2533 161.748 24.88C160.202 26.48 158.122 27.28 155.508 27.28C152.868 27.28 150.775 26.48 149.228 24.88C147.708 23.28 146.948 21.1333 146.948 18.44V7.96L146.908 7.6C146.908 7.36 146.788 7.16 146.548 7C146.308 6.84 146.042 6.76 145.748 6.76C145.322 6.76 144.988 6.93333 144.748 7.28L143.148 6.2ZM170.336 6.92C169.909 6.92 169.549 7.06667 169.256 7.36C168.962 7.65333 168.816 8.02667 168.816 8.48H167.016C167.016 7.04 167.696 6 169.056 5.36C169.456 5.2 169.882 5.12 170.336 5.12H185.056V6.92H172.696V14.52H181.216V16.36H172.696V25.16H185.056V27H170.736V6.92H170.336ZM200.106 1.952C199.85 1.952 199.626 2.048 199.434 2.24C199.258 2.416 199.17 2.632 199.17 2.888H198.09C198.09 2.024 198.498 1.4 199.314 1.016C199.554 0.919999 199.81 0.871999 200.082 0.871999H204.498C205.65 0.871999 206.546 1.24 207.186 1.976C207.842 2.712 208.17 3.68 208.17 4.88C208.17 6.208 207.786 7.24 207.018 7.976C206.25 8.696 205.178 9.056 203.802 9.056C203.274 9.056 202.834 9.024 202.482 8.96V7.904L204.258 8C205.122 8 205.802 7.704 206.298 7.112C206.794 6.52 207.042 5.768 207.042 4.856C207.042 3.976 206.786 3.28 206.274 2.768C205.778 2.24 205.09 1.968 204.21 1.952H201.69V14.024H200.514V1.952H200.106ZM210.484 12.416C210.58 12.768 210.788 12.944 211.108 12.944C211.396 12.944 211.588 12.816 211.684 12.56L216.748 0.823999H217.108L222.82 14H221.596L219.772 9.632H214.108L212.692 13.04C212.388 13.728 211.86 14.072 211.108 14.072C210.676 14.072 210.292 13.928 209.956 13.64C209.636 13.352 209.444 13.016 209.38 12.632L210.484 12.416ZM216.724 3.392L214.564 8.552H219.316L217.132 3.392C216.988 3.056 216.916 2.848 216.916 2.768L216.724 3.392ZM226.975 1.952C226.719 1.952 226.495 2.048 226.303 2.24C226.127 2.416 226.039 2.632 226.039 2.888H224.959C224.959 2.024 225.367 1.4 226.183 1.016C226.423 0.919999 226.679 0.871999 226.951 0.871999H231.463C232.551 0.871999 233.423 1.248 234.079 2C234.751 2.736 235.087 3.672 235.087 4.808C235.087 5.848 234.807 6.696 234.247 7.352C233.703 8.008 232.959 8.368 232.015 8.432L231.535 8.456L231.775 8.528C232.095 8.624 232.343 8.8 232.519 9.056C232.903 9.536 233.439 10.24 234.127 11.168C234.831 12.08 235.255 12.632 235.399 12.824C235.527 13 235.703 13.088 235.927 13.088C236.119 13.088 236.271 13.032 236.383 12.92C236.511 12.792 236.575 12.632 236.575 12.44L237.679 12.488C237.679 12.968 237.511 13.376 237.175 13.712C236.839 14.032 236.431 14.192 235.951 14.192C235.375 14.192 234.895 13.944 234.511 13.448L232.087 10.304C231.719 9.792 231.351 9.408 230.983 9.152C230.631 8.896 230.143 8.744 229.519 8.696V7.616H231.175C232.007 7.616 232.671 7.368 233.167 6.872C233.679 6.376 233.935 5.704 233.935 4.856C233.935 4.008 233.703 3.312 233.239 2.768C232.791 2.224 232.175 1.952 231.391 1.952H228.511V14H227.335V1.952H226.975ZM241.451 14H240.275V0.871999H241.451V14ZM245.294 10.856C245.598 11.576 246.078 12.184 246.734 12.68C247.39 13.176 248.142 13.424 248.99 13.424C249.902 13.424 250.662 13.144 251.27 12.584C251.878 12.024 252.182 11.304 252.182 10.424C252.182 9.784 252.014 9.28 251.678 8.912C251.358 8.528 250.894 8.176 250.286 7.856L249.206 7.328C247.702 6.752 246.638 5.968 246.014 4.976C245.758 4.544 245.63 4.088 245.63 3.608C245.63 2.664 245.958 1.904 246.614 1.328C247.286 0.736 248.118 0.44 249.11 0.44C249.942 0.44 250.646 0.648 251.222 1.064C251.814 1.464 252.11 2.016 252.11 2.72C252.11 3.232 251.95 3.64 251.63 3.944C251.326 4.248 250.926 4.4 250.43 4.4C250.414 4.4 250.382 4.4 250.334 4.4C250.302 4.384 250.278 4.376 250.262 4.376L250.334 3.392C250.366 3.408 250.414 3.416 250.478 3.416C250.638 3.416 250.774 3.336 250.886 3.176C250.998 3.016 251.054 2.848 251.054 2.672C251.054 2.288 250.846 2 250.43 1.808C250.03 1.6 249.59 1.496 249.11 1.496C248.438 1.496 247.862 1.688 247.382 2.072C246.918 2.456 246.686 2.968 246.686 3.608C246.686 4.184 247.022 4.728 247.694 5.24C248.03 5.512 248.47 5.784 249.014 6.056C249.558 6.312 250.054 6.552 250.502 6.776C250.95 6.984 251.39 7.24 251.822 7.544C252.27 7.848 252.614 8.248 252.854 8.744C253.11 9.224 253.238 9.8 253.238 10.472C253.238 11.624 252.83 12.584 252.014 13.352C251.198 14.104 250.198 14.48 249.014 14.48C247.494 14.48 246.19 13.848 245.102 12.584C244.766 12.184 244.502 11.736 244.31 11.24L245.294 10.856Z" fill="white"/>
</svg>
