<svg width="27" height="20" viewBox="0 0 27 20" fill="none" xmlns="http://www.w3.org/2000/svg">
<path d="M24.6133 16.504C24.6133 17.4 24.1653 18.2 23.2693 18.904C22.4373 19.544 21.2853 19.864 19.8133 19.864C18.0853 19.864 16.7733 19.416 15.8773 18.52C14.9813 17.624 14.5333 16.376 14.5333 14.776C14.5333 12.728 15.5253 10.328 17.5093 7.576C19.4933 4.824 21.9573 2.328 24.9013 0.0879974L26.0533 1.24C23.6853 3.416 21.6053 5.592 19.8133 7.768C18.0213 9.88 16.9653 11.992 16.6453 14.104C17.2213 13.912 17.8293 13.784 18.4693 13.72C19.1093 13.656 19.7813 13.624 20.4853 13.624C21.7013 13.624 22.6933 13.88 23.4613 14.392C24.2293 14.904 24.6133 15.608 24.6133 16.504ZM10.8853 16.504C10.8853 17.4 10.4373 18.2 9.54125 18.904C8.70925 19.544 7.52525 19.864 5.98925 19.864C4.32525 19.864 3.04525 19.416 2.14925 18.52C1.25325 17.624 0.80525 16.376 0.80525 14.776C0.80525 12.728 1.79725 10.328 3.78125 7.576C5.76525 4.824 8.22925 2.328 11.1733 0.0879974L12.3253 1.24C9.95725 3.416 7.84525 5.592 5.98925 7.768C4.19725 9.88 3.14125 11.992 2.82125 14.104C3.39725 13.912 4.00525 13.784 4.64525 13.72C5.28525 13.656 5.95725 13.624 6.66125 13.624C7.87725 13.624 8.86925 13.88 9.63725 14.392C10.4693 14.904 10.8853 15.608 10.8853 16.504Z" fill="white"/>
</svg>
